<?xml version="1.0" standalone="no"?>
<!DOCTYPE svg PUBLIC "-//W3C//DTD SVG 20010904//EN"
 "http://www.w3.org/TR/2001/REC-SVG-20010904/DTD/svg10.dtd">
<svg version="1.0" xmlns="http://www.w3.org/2000/svg"
 width="2160.000000pt" height="2160.000000pt" viewBox="0 0 2160.000000 2160.000000"
 preserveAspectRatio="xMidYMid meet">
<metadata>
Created by potrace 1.11, written by Peter Selinger 2001-2013
</metadata>
<g transform="translate(0.000000,2160.000000) scale(0.100000,-0.100000)"
fill="#000000" stroke="none">
<path d="M10670 19054 c-306 -65 -511 -383 -446 -691 11 -55 11 -63 -2 -63
-44 0 -391 -45 -547 -71 -768 -127 -1451 -350 -2160 -706 -437 -220 -884 -502
-1245 -786 -63 -50 -121 -95 -127 -100 -9 -7 -39 15 -101 74 -102 97 -223 167
-348 201 -112 30 -316 30 -428 0 -216 -59 -420 -227 -520 -429 -61 -124 -80
-209 -80 -363 0 -154 19 -239 79 -361 42 -86 76 -131 169 -226 l70 -72 -47
-58 c-83 -104 -303 -415 -394 -558 -533 -835 -910 -1791 -1072 -2720 -29 -164
-29 -165 -46 -165 -33 0 -216 -65 -290 -103 -357 -185 -592 -533 -636 -940
-57 -535 277 -1063 784 -1236 45 -16 97 -32 115 -36 22 -4 33 -13 37 -28 2
-12 16 -89 31 -172 253 -1435 944 -2808 1941 -3855 l83 -88 -77 -7 c-237 -22
-444 -136 -591 -327 -54 -70 -106 -178 -134 -275 -32 -111 -32 -315 0 -426 43
-151 119 -274 239 -388 100 -95 208 -155 353 -195 91 -25 309 -25 400 0 156
43 275 113 381 223 162 168 231 335 233 560 1 62 2 113 4 113 1 0 30 -22 65
-48 626 -486 1487 -928 2302 -1182 434 -136 1059 -266 1420 -295 125 -10 125
-10 125 -53 1 -135 69 -290 175 -397 231 -232 599 -232 830 0 103 104 174 262
175 390 l0 31 163 12 c715 56 1477 236 2153 508 527 212 1092 515 1502 806 46
32 87 56 93 53 5 -4 9 -21 9 -38 0 -90 75 -273 153 -375 123 -158 267 -256
457 -308 91 -25 309 -25 400 0 156 43 275 113 381 223 167 174 233 337 233
578 0 157 -21 241 -92 379 -38 75 -64 109 -147 191 -82 82 -116 109 -190 146
-49 26 -108 52 -130 59 -22 6 -46 13 -54 16 -8 3 21 40 80 102 132 137 326
362 460 532 772 982 1295 2160 1504 3393 13 76 25 140 27 141 1 1 41 15 88 31
436 143 751 539 801 1008 58 546 -288 1080 -806 1243 -49 16 -91 29 -92 29 -2
1 -17 78 -34 171 -221 1209 -743 2363 -1502 3322 l-106 134 53 76 c104 152
140 271 140 467 0 157 -21 241 -92 379 -38 75 -64 109 -147 191 -82 82 -117
109 -191 148 -136 70 -220 90 -384 90 -106 0 -152 -5 -214 -21 -91 -25 -235
-98 -297 -152 l-44 -37 -65 52 c-36 28 -130 98 -210 155 -844 601 -1852 1042
-2840 1244 -301 61 -716 119 -951 133 -59 3 -112 9 -118 13 -8 4 -8 22 -1 60
77 405 -300 763 -710 674z m313 -78 c85 -32 140 -70 206 -142 94 -102 131
-204 131 -355 0 -160 -53 -285 -166 -390 -105 -97 -202 -134 -354 -134 -157 0
-251 37 -362 143 -118 112 -161 211 -162 377 -1 159 34 254 138 364 82 86 171
138 281 161 73 16 213 4 288 -24z m792 -716 c1018 -117 1979 -434 2890 -953
255 -146 638 -401 817 -545 l68 -54 -50 -55 c-202 -221 -255 -565 -133 -858
79 -189 279 -379 468 -445 294 -103 614 -42 828 159 l61 58 116 -146 c644
-815 1129 -1803 1383 -2817 42 -167 107 -476 123 -588 l7 -48 -39 5 c-97 15
-285 19 -365 8 -268 -39 -502 -154 -689 -341 -229 -230 -345 -511 -345 -840 0
-301 87 -536 285 -775 252 -304 688 -466 1083 -401 90 15 83 26 61 -112 -96
-601 -292 -1240 -562 -1837 -350 -774 -792 -1435 -1380 -2063 l-115 -123 -101
6 c-176 12 -341 -25 -481 -107 -92 -54 -239 -201 -293 -293 -67 -115 -112
-275 -112 -401 l0 -51 -107 -75 c-640 -448 -1436 -826 -2203 -1047 -472 -135
-1046 -238 -1496 -267 l-100 -7 -17 84 c-24 124 -75 218 -163 306 -234 230
-599 230 -829 -1 -95 -96 -146 -197 -170 -338 -5 -35 -7 -36 -38 -32 -18 2
-113 13 -212 25 -1184 137 -2389 606 -3410 1327 -254 179 -261 186 -280 262
-37 149 -114 279 -232 391 -142 135 -266 192 -485 224 -32 5 -53 23 -152 128
-908 970 -1550 2171 -1845 3457 -40 175 -84 398 -97 498 l-7 52 59 -7 c102
-14 303 -8 394 11 234 48 444 160 607 323 466 466 466 1220 0 1686 -231 231
-563 360 -887 343 -63 -3 -126 -9 -139 -12 -24 -7 -24 -7 -17 47 21 158 117
586 187 829 258 893 728 1822 1272 2512 l69 88 42 -26 c310 -192 721 -155 982
89 126 117 202 240 246 394 29 103 31 314 4 413 -22 82 -60 170 -102 237 l-33
52 132 103 c1017 798 2259 1332 3532 1517 156 22 436 54 439 49 49 -105 79
-151 140 -212 82 -82 161 -128 272 -156 141 -36 295 -18 427 52 90 48 196 158
243 254 l38 77 116 -6 c63 -4 196 -16 295 -27z m-6075 -1397 c138 -40 212 -85
325 -198 87 -86 108 -114 148 -195 59 -118 80 -210 79 -355 0 -139 -19 -223
-79 -345 -41 -82 -61 -109 -148 -195 -166 -166 -314 -228 -545 -228 -231 0
-380 62 -545 227 -87 87 -107 114 -148 196 -62 126 -80 205 -79 355 1 229 62
376 227 541 87 87 113 106 195 147 87 42 178 69 270 81 71 8 216 -6 300 -31z
m10640 0 c138 -40 212 -85 325 -198 87 -86 108 -114 148 -195 59 -118 80 -210
79 -355 0 -139 -19 -223 -79 -345 -41 -82 -61 -109 -148 -195 -166 -166 -314
-228 -545 -228 -231 0 -379 62 -545 228 -87 86 -107 113 -148 195 -62 126 -80
205 -79 355 1 229 62 376 227 541 87 87 113 106 195 147 87 42 178 69 270 81
71 8 216 -6 300 -31z m-12520 -4908 c242 -20 518 -160 705 -357 229 -240 339
-556 313 -899 -41 -553 -504 -1015 -1060 -1058 -350 -27 -671 91 -919 338
-248 248 -364 565 -337 922 35 479 389 899 863 1025 102 27 245 44 325 38 25
-2 74 -6 110 -9z m14420 0 c242 -20 518 -160 705 -357 229 -240 339 -556 313
-899 -41 -553 -504 -1015 -1060 -1058 -350 -27 -671 91 -919 338 -248 248
-364 565 -337 922 35 479 389 899 863 1025 102 27 245 44 325 38 25 -2 74 -6
110 -9z m-12540 -6532 c138 -40 212 -85 325 -198 165 -165 226 -310 227 -540
1 -150 -17 -228 -79 -355 -41 -82 -61 -109 -148 -195 -166 -166 -314 -228
-545 -228 -231 0 -380 62 -545 227 -87 87 -107 114 -148 196 -62 126 -80 205
-79 355 1 229 62 376 227 541 87 87 113 106 195 147 87 42 178 69 270 81 71 8
216 -6 300 -31z m10639 1 c139 -41 212 -85 326 -199 87 -86 108 -114 148 -195
59 -118 80 -210 79 -355 0 -139 -19 -223 -79 -345 -41 -82 -61 -109 -148 -195
-166 -166 -314 -228 -545 -228 -231 0 -379 62 -545 228 -87 86 -107 113 -148
195 -62 126 -80 205 -79 355 1 229 62 376 227 541 87 87 113 106 195 147 84
41 167 66 265 81 65 9 220 -6 304 -30z m-5356 -1708 c85 -32 140 -70 206 -142
94 -102 131 -204 131 -355 0 -160 -53 -285 -166 -390 -105 -97 -202 -134 -354
-134 -157 0 -251 37 -362 143 -118 112 -161 211 -162 377 -1 159 34 254 138
364 82 86 171 138 281 161 73 16 213 4 288 -24z"/>
<path d="M10555 16113 c-809 -34 -1668 -282 -2380 -688 -252 -143 -562 -359
-795 -554 -142 -118 -442 -411 -560 -547 -481 -549 -824 -1139 -1052 -1804
-380 -1112 -380 -2328 0 -3440 259 -756 665 -1412 1232 -1993 738 -756 1637
-1255 2680 -1486 353 -79 691 -113 1110 -114 496 -1 868 45 1335 163 862 220
1698 682 2324 1285 388 373 663 715 915 1135 599 997 853 2171 720 3335 -120
1061 -551 2043 -1261 2871 -117 137 -414 435 -553 554 -839 721 -1873 1159
-2985 1265 -155 15 -568 25 -730 18z"/>
</g>
</svg>
